<?xml version="1.0" encoding="utf-8" standalone="no"?>
<!DOCTYPE svg PUBLIC "-//W3C//DTD SVG 1.1//EN"
  "http://www.w3.org/Graphics/SVG/1.1/DTD/svg11.dtd">
<!-- Created with matplotlib (https://matplotlib.org/) -->
<svg height="288pt" version="1.1" viewBox="0 0 432 288" width="432pt" xmlns="http://www.w3.org/2000/svg" xmlns:xlink="http://www.w3.org/1999/xlink">
 <metadata>
  <rdf:RDF xmlns:cc="http://creativecommons.org/ns#" xmlns:dc="http://purl.org/dc/elements/1.1/" xmlns:rdf="http://www.w3.org/1999/02/22-rdf-syntax-ns#">
   <cc:Work>
    <dc:type rdf:resource="http://purl.org/dc/dcmitype/StillImage"/>
    <dc:date>2021-04-02T13:38:26.234767</dc:date>
    <dc:format>image/svg+xml</dc:format>
    <dc:creator>
     <cc:Agent>
      <dc:title>Matplotlib v3.3.2, https://matplotlib.org/</dc:title>
     </cc:Agent>
    </dc:creator>
   </cc:Work>
  </rdf:RDF>
 </metadata>
 <defs>
  <style type="text/css">*{stroke-linecap:butt;stroke-linejoin:round;}</style>
 </defs>
 <g id="figure_1">
  <g id="patch_1">
   <path d="M 0 288 
L 432 288 
L 432 0 
L 0 0 
z
" style="fill:none;"/>
  </g>
  <g id="axes_1">
   <g id="patch_2">
    <path d="M 56.175 246.2 
L 421.2 246.2 
L 421.2 10.8 
L 56.175 10.8 
z
" style="fill:#ffffff;"/>
   </g>
   <g id="PolyCollection_1">
    <defs>
     <path d="M 72.767045 -158.756158 
L 72.767045 -144.682533 
L 77.076668 -144.649385 
L 81.38629 -144.613907 
L 85.695912 -144.576099 
L 90.005534 -144.53596 
L 94.315156 -144.493491 
L 98.624779 -144.448691 
L 102.934401 -144.401561 
L 107.244023 -144.352101 
L 111.553645 -144.30031 
L 115.863267 -144.246189 
L 120.17289 -144.189738 
L 124.482512 -144.130956 
L 128.792134 -144.069844 
L 133.101756 -144.006401 
L 137.411378 -143.940628 
L 141.721001 -143.872525 
L 146.030623 -143.802091 
L 150.340245 -143.729327 
L 154.649867 -143.654233 
L 158.959489 -143.576808 
L 163.269112 -143.497053 
L 167.578734 -143.414967 
L 171.888356 -143.330551 
L 176.197978 -143.243805 
L 180.5076 -143.154728 
L 184.817223 -143.063321 
L 189.126845 -142.969584 
L 193.436467 -142.873516 
L 197.746089 -142.775118 
L 202.055711 -142.674389 
L 206.365334 -142.57133 
L 210.674956 -142.465941 
L 214.984578 -142.358221 
L 219.2942 -142.248171 
L 223.603822 -142.135791 
L 227.913445 -142.02108 
L 232.223067 -141.904039 
L 236.532689 -141.784667 
L 240.842311 -141.662965 
L 245.151933 -141.799706 
L 249.461555 -141.934117 
L 253.771178 -142.066198 
L 258.0808 -142.195948 
L 262.390422 -142.323367 
L 266.700044 -142.448457 
L 271.009666 -142.571215 
L 275.319289 -142.691644 
L 279.628911 -142.809742 
L 283.938533 -142.92551 
L 288.248155 -143.038947 
L 292.557777 -143.150054 
L 296.8674 -143.258831 
L 301.177022 -143.365277 
L 305.486644 -143.469393 
L 309.796266 -143.571179 
L 314.105888 -143.670634 
L 318.415511 -143.767759 
L 322.725133 -143.862553 
L 327.034755 -143.955017 
L 331.344377 -144.045151 
L 335.653999 -144.132954 
L 339.963622 -144.218427 
L 344.273244 -144.301569 
L 348.582866 -144.382382 
L 352.892488 -144.460863 
L 357.20211 -144.537015 
L 361.511733 -144.610836 
L 365.821355 -144.682326 
L 370.130977 -144.751487 
L 374.440599 -144.818317 
L 378.750221 -144.882816 
L 383.059844 -144.944985 
L 387.369466 -145.004824 
L 391.679088 -145.062332 
L 395.98871 -145.11751 
L 400.298332 -145.170358 
L 404.607955 -145.220875 
L 404.607955 -159.2945 
L 404.607955 -159.2945 
L 400.298332 -159.243983 
L 395.98871 -159.191135 
L 391.679088 -159.135957 
L 387.369466 -159.078449 
L 383.059844 -159.01861 
L 378.750221 -158.956441 
L 374.440599 -158.891942 
L 370.130977 -158.825112 
L 365.821355 -158.755951 
L 361.511733 -158.684461 
L 357.20211 -158.61064 
L 352.892488 -158.534488 
L 348.582866 -158.456007 
L 344.273244 -158.375194 
L 339.963622 -158.292052 
L 335.653999 -158.206579 
L 331.344377 -158.118776 
L 327.034755 -158.028642 
L 322.725133 -157.936178 
L 318.415511 -157.841384 
L 314.105888 -157.744259 
L 309.796266 -157.644804 
L 305.486644 -157.543018 
L 301.177022 -157.438902 
L 296.8674 -157.332456 
L 292.557777 -157.223679 
L 288.248155 -157.112572 
L 283.938533 -156.999135 
L 279.628911 -156.883367 
L 275.319289 -156.765269 
L 271.009666 -156.644841 
L 266.700044 -156.522082 
L 262.390422 -155.289858 
L 258.0808 -153.625487 
L 253.771178 -151.715831 
L 249.461555 -149.557628 
L 245.151933 -147.11567 
L 240.842311 -144.31864 
L 236.532689 -148.26858 
L 232.223067 -151.838303 
L 227.913445 -155.074284 
L 223.603822 -156.209416 
L 219.2942 -156.321796 
L 214.984578 -156.431846 
L 210.674956 -156.539566 
L 206.365334 -156.644955 
L 202.055711 -156.748014 
L 197.746089 -156.848743 
L 193.436467 -156.947141 
L 189.126845 -157.043209 
L 184.817223 -157.136946 
L 180.5076 -157.228353 
L 176.197978 -157.31743 
L 171.888356 -157.404176 
L 167.578734 -157.488592 
L 163.269112 -157.570678 
L 158.959489 -157.650433 
L 154.649867 -157.727858 
L 150.340245 -157.802952 
L 146.030623 -157.875716 
L 141.721001 -157.94615 
L 137.411378 -158.014253 
L 133.101756 -158.080026 
L 128.792134 -158.143469 
L 124.482512 -158.204581 
L 120.17289 -158.263363 
L 115.863267 -158.319814 
L 111.553645 -158.373935 
L 107.244023 -158.425726 
L 102.934401 -158.475186 
L 98.624779 -158.522316 
L 94.315156 -158.567116 
L 90.005534 -158.609585 
L 85.695912 -158.649724 
L 81.38629 -158.687532 
L 77.076668 -158.72301 
L 72.767045 -158.756158 
z
" id="m02cb11fbfa" style="stroke:#add8e6;"/>
    </defs>
    <g clip-path="url(#pe10edff0e8)">
     <use style="fill:#add8e6;stroke:#add8e6;" x="0" xlink:href="#m02cb11fbfa" y="288"/>
    </g>
   </g>
   <g id="matplotlib.axis_1">
    <g id="xtick_1">
     <g id="line2d_1">
      <defs>
       <path d="M 0 0 
L 0 3.5 
" id="m8d05136bb5" style="stroke:#000000;stroke-width:0.8;"/>
      </defs>
      <g>
       <use style="stroke:#000000;stroke-width:0.8;" x="63.910772" xlink:href="#m8d05136bb5" y="246.2"/>
      </g>
     </g>
     <g id="text_1">
      <!-- 550 -->
      <g transform="translate(54.367022 260.798437)scale(0.1 -0.1)">
       <defs>
        <path d="M 10.796875 72.90625 
L 49.515625 72.90625 
L 49.515625 64.59375 
L 19.828125 64.59375 
L 19.828125 46.734375 
Q 21.96875 47.46875 24.109375 47.828125 
Q 26.265625 48.1875 28.421875 48.1875 
Q 40.625 48.1875 47.75 41.5 
Q 54.890625 34.8125 54.890625 23.390625 
Q 54.890625 11.625 47.5625 5.09375 
Q 40.234375 -1.421875 26.90625 -1.421875 
Q 22.3125 -1.421875 17.546875 -0.640625 
Q 12.796875 0.140625 7.71875 1.703125 
L 7.71875 11.625 
Q 12.109375 9.234375 16.796875 8.0625 
Q 21.484375 6.890625 26.703125 6.890625 
Q 35.15625 6.890625 40.078125 11.328125 
Q 45.015625 15.765625 45.015625 23.390625 
Q 45.015625 31 40.078125 35.4375 
Q 35.15625 39.890625 26.703125 39.890625 
Q 22.75 39.890625 18.8125 39.015625 
Q 14.890625 38.140625 10.796875 36.28125 
z
" id="DejaVuSans-53"/>
        <path d="M 31.78125 66.40625 
Q 24.171875 66.40625 20.328125 58.90625 
Q 16.5 51.421875 16.5 36.375 
Q 16.5 21.390625 20.328125 13.890625 
Q 24.171875 6.390625 31.78125 6.390625 
Q 39.453125 6.390625 43.28125 13.890625 
Q 47.125 21.390625 47.125 36.375 
Q 47.125 51.421875 43.28125 58.90625 
Q 39.453125 66.40625 31.78125 66.40625 
z
M 31.78125 74.21875 
Q 44.046875 74.21875 50.515625 64.515625 
Q 56.984375 54.828125 56.984375 36.375 
Q 56.984375 17.96875 50.515625 8.265625 
Q 44.046875 -1.421875 31.78125 -1.421875 
Q 19.53125 -1.421875 13.0625 8.265625 
Q 6.59375 17.96875 6.59375 36.375 
Q 6.59375 54.828125 13.0625 64.515625 
Q 19.53125 74.21875 31.78125 74.21875 
z
" id="DejaVuSans-48"/>
       </defs>
       <use xlink:href="#DejaVuSans-53"/>
       <use x="63.623047" xlink:href="#DejaVuSans-53"/>
       <use x="127.246094" xlink:href="#DejaVuSans-48"/>
      </g>
     </g>
    </g>
    <g id="xtick_2">
     <g id="line2d_2">
      <g>
       <use style="stroke:#000000;stroke-width:0.8;" x="106.985446" xlink:href="#m8d05136bb5" y="246.2"/>
      </g>
     </g>
     <g id="text_2">
      <!-- 600 -->
      <g transform="translate(97.441696 260.798437)scale(0.1 -0.1)">
       <defs>
        <path d="M 33.015625 40.375 
Q 26.375 40.375 22.484375 35.828125 
Q 18.609375 31.296875 18.609375 23.390625 
Q 18.609375 15.53125 22.484375 10.953125 
Q 26.375 6.390625 33.015625 6.390625 
Q 39.65625 6.390625 43.53125 10.953125 
Q 47.40625 15.53125 47.40625 23.390625 
Q 47.40625 31.296875 43.53125 35.828125 
Q 39.65625 40.375 33.015625 40.375 
z
M 52.59375 71.296875 
L 52.59375 62.3125 
Q 48.875 64.0625 45.09375 64.984375 
Q 41.3125 65.921875 37.59375 65.921875 
Q 27.828125 65.921875 22.671875 59.328125 
Q 17.53125 52.734375 16.796875 39.40625 
Q 19.671875 43.65625 24.015625 45.921875 
Q 28.375 48.1875 33.59375 48.1875 
Q 44.578125 48.1875 50.953125 41.515625 
Q 57.328125 34.859375 57.328125 23.390625 
Q 57.328125 12.15625 50.6875 5.359375 
Q 44.046875 -1.421875 33.015625 -1.421875 
Q 20.359375 -1.421875 13.671875 8.265625 
Q 6.984375 17.96875 6.984375 36.375 
Q 6.984375 53.65625 15.1875 63.9375 
Q 23.390625 74.21875 37.203125 74.21875 
Q 40.921875 74.21875 44.703125 73.484375 
Q 48.484375 72.75 52.59375 71.296875 
z
" id="DejaVuSans-54"/>
       </defs>
       <use xlink:href="#DejaVuSans-54"/>
       <use x="63.623047" xlink:href="#DejaVuSans-48"/>
       <use x="127.246094" xlink:href="#DejaVuSans-48"/>
      </g>
     </g>
    </g>
    <g id="xtick_3">
     <g id="line2d_3">
      <g>
       <use style="stroke:#000000;stroke-width:0.8;" x="150.06012" xlink:href="#m8d05136bb5" y="246.2"/>
      </g>
     </g>
     <g id="text_3">
      <!-- 650 -->
      <g transform="translate(140.51637 260.798437)scale(0.1 -0.1)">
       <use xlink:href="#DejaVuSans-54"/>
       <use x="63.623047" xlink:href="#DejaVuSans-53"/>
       <use x="127.246094" xlink:href="#DejaVuSans-48"/>
      </g>
     </g>
    </g>
    <g id="xtick_4">
     <g id="line2d_4">
      <g>
       <use style="stroke:#000000;stroke-width:0.8;" x="193.134793" xlink:href="#m8d05136bb5" y="246.2"/>
      </g>
     </g>
     <g id="text_4">
      <!-- 700 -->
      <g transform="translate(183.591043 260.798437)scale(0.1 -0.1)">
       <defs>
        <path d="M 8.203125 72.90625 
L 55.078125 72.90625 
L 55.078125 68.703125 
L 28.609375 0 
L 18.3125 0 
L 43.21875 64.59375 
L 8.203125 64.59375 
z
" id="DejaVuSans-55"/>
       </defs>
       <use xlink:href="#DejaVuSans-55"/>
       <use x="63.623047" xlink:href="#DejaVuSans-48"/>
       <use x="127.246094" xlink:href="#DejaVuSans-48"/>
      </g>
     </g>
    </g>
    <g id="xtick_5">
     <g id="line2d_5">
      <g>
       <use style="stroke:#000000;stroke-width:0.8;" x="236.209467" xlink:href="#m8d05136bb5" y="246.2"/>
      </g>
     </g>
     <g id="text_5">
      <!-- 750 -->
      <g transform="translate(226.665717 260.798437)scale(0.1 -0.1)">
       <use xlink:href="#DejaVuSans-55"/>
       <use x="63.623047" xlink:href="#DejaVuSans-53"/>
       <use x="127.246094" xlink:href="#DejaVuSans-48"/>
      </g>
     </g>
    </g>
    <g id="xtick_6">
     <g id="line2d_6">
      <g>
       <use style="stroke:#000000;stroke-width:0.8;" x="279.284141" xlink:href="#m8d05136bb5" y="246.2"/>
      </g>
     </g>
     <g id="text_6">
      <!-- 800 -->
      <g transform="translate(269.740391 260.798437)scale(0.1 -0.1)">
       <defs>
        <path d="M 31.78125 34.625 
Q 24.75 34.625 20.71875 30.859375 
Q 16.703125 27.09375 16.703125 20.515625 
Q 16.703125 13.921875 20.71875 10.15625 
Q 24.75 6.390625 31.78125 6.390625 
Q 38.8125 6.390625 42.859375 10.171875 
Q 46.921875 13.96875 46.921875 20.515625 
Q 46.921875 27.09375 42.890625 30.859375 
Q 38.875 34.625 31.78125 34.625 
z
M 21.921875 38.8125 
Q 15.578125 40.375 12.03125 44.71875 
Q 8.5 49.078125 8.5 55.328125 
Q 8.5 64.0625 14.71875 69.140625 
Q 20.953125 74.21875 31.78125 74.21875 
Q 42.671875 74.21875 48.875 69.140625 
Q 55.078125 64.0625 55.078125 55.328125 
Q 55.078125 49.078125 51.53125 44.71875 
Q 48 40.375 41.703125 38.8125 
Q 48.828125 37.15625 52.796875 32.3125 
Q 56.78125 27.484375 56.78125 20.515625 
Q 56.78125 9.90625 50.3125 4.234375 
Q 43.84375 -1.421875 31.78125 -1.421875 
Q 19.734375 -1.421875 13.25 4.234375 
Q 6.78125 9.90625 6.78125 20.515625 
Q 6.78125 27.484375 10.78125 32.3125 
Q 14.796875 37.15625 21.921875 38.8125 
z
M 18.3125 54.390625 
Q 18.3125 48.734375 21.84375 45.5625 
Q 25.390625 42.390625 31.78125 42.390625 
Q 38.140625 42.390625 41.71875 45.5625 
Q 45.3125 48.734375 45.3125 54.390625 
Q 45.3125 60.0625 41.71875 63.234375 
Q 38.140625 66.40625 31.78125 66.40625 
Q 25.390625 66.40625 21.84375 63.234375 
Q 18.3125 60.0625 18.3125 54.390625 
z
" id="DejaVuSans-56"/>
       </defs>
       <use xlink:href="#DejaVuSans-56"/>
       <use x="63.623047" xlink:href="#DejaVuSans-48"/>
       <use x="127.246094" xlink:href="#DejaVuSans-48"/>
      </g>
     </g>
    </g>
    <g id="xtick_7">
     <g id="line2d_7">
      <g>
       <use style="stroke:#000000;stroke-width:0.8;" x="322.358815" xlink:href="#m8d05136bb5" y="246.2"/>
      </g>
     </g>
     <g id="text_7">
      <!-- 850 -->
      <g transform="translate(312.815065 260.798437)scale(0.1 -0.1)">
       <use xlink:href="#DejaVuSans-56"/>
       <use x="63.623047" xlink:href="#DejaVuSans-53"/>
       <use x="127.246094" xlink:href="#DejaVuSans-48"/>
      </g>
     </g>
    </g>
    <g id="xtick_8">
     <g id="line2d_8">
      <g>
       <use style="stroke:#000000;stroke-width:0.8;" x="365.433489" xlink:href="#m8d05136bb5" y="246.2"/>
      </g>
     </g>
     <g id="text_8">
      <!-- 900 -->
      <g transform="translate(355.889739 260.798437)scale(0.1 -0.1)">
       <defs>
        <path d="M 10.984375 1.515625 
L 10.984375 10.5 
Q 14.703125 8.734375 18.5 7.8125 
Q 22.3125 6.890625 25.984375 6.890625 
Q 35.75 6.890625 40.890625 13.453125 
Q 46.046875 20.015625 46.78125 33.40625 
Q 43.953125 29.203125 39.59375 26.953125 
Q 35.25 24.703125 29.984375 24.703125 
Q 19.046875 24.703125 12.671875 31.3125 
Q 6.296875 37.9375 6.296875 49.421875 
Q 6.296875 60.640625 12.9375 67.421875 
Q 19.578125 74.21875 30.609375 74.21875 
Q 43.265625 74.21875 49.921875 64.515625 
Q 56.59375 54.828125 56.59375 36.375 
Q 56.59375 19.140625 48.40625 8.859375 
Q 40.234375 -1.421875 26.421875 -1.421875 
Q 22.703125 -1.421875 18.890625 -0.6875 
Q 15.09375 0.046875 10.984375 1.515625 
z
M 30.609375 32.421875 
Q 37.25 32.421875 41.125 36.953125 
Q 45.015625 41.5 45.015625 49.421875 
Q 45.015625 57.28125 41.125 61.84375 
Q 37.25 66.40625 30.609375 66.40625 
Q 23.96875 66.40625 20.09375 61.84375 
Q 16.21875 57.28125 16.21875 49.421875 
Q 16.21875 41.5 20.09375 36.953125 
Q 23.96875 32.421875 30.609375 32.421875 
z
" id="DejaVuSans-57"/>
       </defs>
       <use xlink:href="#DejaVuSans-57"/>
       <use x="63.623047" xlink:href="#DejaVuSans-48"/>
       <use x="127.246094" xlink:href="#DejaVuSans-48"/>
      </g>
     </g>
    </g>
    <g id="xtick_9">
     <g id="line2d_9">
      <g>
       <use style="stroke:#000000;stroke-width:0.8;" x="408.508163" xlink:href="#m8d05136bb5" y="246.2"/>
      </g>
     </g>
     <g id="text_9">
      <!-- 950 -->
      <g transform="translate(398.964413 260.798437)scale(0.1 -0.1)">
       <use xlink:href="#DejaVuSans-57"/>
       <use x="63.623047" xlink:href="#DejaVuSans-53"/>
       <use x="127.246094" xlink:href="#DejaVuSans-48"/>
      </g>
     </g>
    </g>
    <g id="text_10">
     <!-- Distance (m) -->
     <g transform="translate(206.464062 274.476562)scale(0.1 -0.1)">
      <defs>
       <path d="M 19.671875 64.796875 
L 19.671875 8.109375 
L 31.59375 8.109375 
Q 46.6875 8.109375 53.6875 14.9375 
Q 60.6875 21.78125 60.6875 36.53125 
Q 60.6875 51.171875 53.6875 57.984375 
Q 46.6875 64.796875 31.59375 64.796875 
z
M 9.8125 72.90625 
L 30.078125 72.90625 
Q 51.265625 72.90625 61.171875 64.09375 
Q 71.09375 55.28125 71.09375 36.53125 
Q 71.09375 17.671875 61.125 8.828125 
Q 51.171875 0 30.078125 0 
L 9.8125 0 
z
" id="DejaVuSans-68"/>
       <path d="M 9.421875 54.6875 
L 18.40625 54.6875 
L 18.40625 0 
L 9.421875 0 
z
M 9.421875 75.984375 
L 18.40625 75.984375 
L 18.40625 64.59375 
L 9.421875 64.59375 
z
" id="DejaVuSans-105"/>
       <path d="M 44.28125 53.078125 
L 44.28125 44.578125 
Q 40.484375 46.53125 36.375 47.5 
Q 32.28125 48.484375 27.875 48.484375 
Q 21.1875 48.484375 17.84375 46.4375 
Q 14.5 44.390625 14.5 40.28125 
Q 14.5 37.15625 16.890625 35.375 
Q 19.28125 33.59375 26.515625 31.984375 
L 29.59375 31.296875 
Q 39.15625 29.25 43.1875 25.515625 
Q 47.21875 21.78125 47.21875 15.09375 
Q 47.21875 7.46875 41.1875 3.015625 
Q 35.15625 -1.421875 24.609375 -1.421875 
Q 20.21875 -1.421875 15.453125 -0.5625 
Q 10.6875 0.296875 5.421875 2 
L 5.421875 11.28125 
Q 10.40625 8.6875 15.234375 7.390625 
Q 20.0625 6.109375 24.8125 6.109375 
Q 31.15625 6.109375 34.5625 8.28125 
Q 37.984375 10.453125 37.984375 14.40625 
Q 37.984375 18.0625 35.515625 20.015625 
Q 33.0625 21.96875 24.703125 23.78125 
L 21.578125 24.515625 
Q 13.234375 26.265625 9.515625 29.90625 
Q 5.8125 33.546875 5.8125 39.890625 
Q 5.8125 47.609375 11.28125 51.796875 
Q 16.75 56 26.8125 56 
Q 31.78125 56 36.171875 55.265625 
Q 40.578125 54.546875 44.28125 53.078125 
z
" id="DejaVuSans-115"/>
       <path d="M 18.3125 70.21875 
L 18.3125 54.6875 
L 36.8125 54.6875 
L 36.8125 47.703125 
L 18.3125 47.703125 
L 18.3125 18.015625 
Q 18.3125 11.328125 20.140625 9.421875 
Q 21.96875 7.515625 27.59375 7.515625 
L 36.8125 7.515625 
L 36.8125 0 
L 27.59375 0 
Q 17.1875 0 13.234375 3.875 
Q 9.28125 7.765625 9.28125 18.015625 
L 9.28125 47.703125 
L 2.6875 47.703125 
L 2.6875 54.6875 
L 9.28125 54.6875 
L 9.28125 70.21875 
z
" id="DejaVuSans-116"/>
       <path d="M 34.28125 27.484375 
Q 23.390625 27.484375 19.1875 25 
Q 14.984375 22.515625 14.984375 16.5 
Q 14.984375 11.71875 18.140625 8.90625 
Q 21.296875 6.109375 26.703125 6.109375 
Q 34.1875 6.109375 38.703125 11.40625 
Q 43.21875 16.703125 43.21875 25.484375 
L 43.21875 27.484375 
z
M 52.203125 31.203125 
L 52.203125 0 
L 43.21875 0 
L 43.21875 8.296875 
Q 40.140625 3.328125 35.546875 0.953125 
Q 30.953125 -1.421875 24.3125 -1.421875 
Q 15.921875 -1.421875 10.953125 3.296875 
Q 6 8.015625 6 15.921875 
Q 6 25.140625 12.171875 29.828125 
Q 18.359375 34.515625 30.609375 34.515625 
L 43.21875 34.515625 
L 43.21875 35.40625 
Q 43.21875 41.609375 39.140625 45 
Q 35.0625 48.390625 27.6875 48.390625 
Q 23 48.390625 18.546875 47.265625 
Q 14.109375 46.140625 10.015625 43.890625 
L 10.015625 52.203125 
Q 14.9375 54.109375 19.578125 55.046875 
Q 24.21875 56 28.609375 56 
Q 40.484375 56 46.34375 49.84375 
Q 52.203125 43.703125 52.203125 31.203125 
z
" id="DejaVuSans-97"/>
       <path d="M 54.890625 33.015625 
L 54.890625 0 
L 45.90625 0 
L 45.90625 32.71875 
Q 45.90625 40.484375 42.875 44.328125 
Q 39.84375 48.1875 33.796875 48.1875 
Q 26.515625 48.1875 22.3125 43.546875 
Q 18.109375 38.921875 18.109375 30.90625 
L 18.109375 0 
L 9.078125 0 
L 9.078125 54.6875 
L 18.109375 54.6875 
L 18.109375 46.1875 
Q 21.34375 51.125 25.703125 53.5625 
Q 30.078125 56 35.796875 56 
Q 45.21875 56 50.046875 50.171875 
Q 54.890625 44.34375 54.890625 33.015625 
z
" id="DejaVuSans-110"/>
       <path d="M 48.78125 52.59375 
L 48.78125 44.1875 
Q 44.96875 46.296875 41.140625 47.34375 
Q 37.3125 48.390625 33.40625 48.390625 
Q 24.65625 48.390625 19.8125 42.84375 
Q 14.984375 37.3125 14.984375 27.296875 
Q 14.984375 17.28125 19.8125 11.734375 
Q 24.65625 6.203125 33.40625 6.203125 
Q 37.3125 6.203125 41.140625 7.25 
Q 44.96875 8.296875 48.78125 10.40625 
L 48.78125 2.09375 
Q 45.015625 0.34375 40.984375 -0.53125 
Q 36.96875 -1.421875 32.421875 -1.421875 
Q 20.0625 -1.421875 12.78125 6.34375 
Q 5.515625 14.109375 5.515625 27.296875 
Q 5.515625 40.671875 12.859375 48.328125 
Q 20.21875 56 33.015625 56 
Q 37.15625 56 41.109375 55.140625 
Q 45.0625 54.296875 48.78125 52.59375 
z
" id="DejaVuSans-99"/>
       <path d="M 56.203125 29.59375 
L 56.203125 25.203125 
L 14.890625 25.203125 
Q 15.484375 15.921875 20.484375 11.0625 
Q 25.484375 6.203125 34.421875 6.203125 
Q 39.59375 6.203125 44.453125 7.46875 
Q 49.3125 8.734375 54.109375 11.28125 
L 54.109375 2.78125 
Q 49.265625 0.734375 44.1875 -0.34375 
Q 39.109375 -1.421875 33.890625 -1.421875 
Q 20.796875 -1.421875 13.15625 6.1875 
Q 5.515625 13.8125 5.515625 26.8125 
Q 5.515625 40.234375 12.765625 48.109375 
Q 20.015625 56 32.328125 56 
Q 43.359375 56 49.78125 48.890625 
Q 56.203125 41.796875 56.203125 29.59375 
z
M 47.21875 32.234375 
Q 47.125 39.59375 43.09375 43.984375 
Q 39.0625 48.390625 32.421875 48.390625 
Q 24.90625 48.390625 20.390625 44.140625 
Q 15.875 39.890625 15.1875 32.171875 
z
" id="DejaVuSans-101"/>
       <path id="DejaVuSans-32"/>
       <path d="M 31 75.875 
Q 24.46875 64.65625 21.28125 53.65625 
Q 18.109375 42.671875 18.109375 31.390625 
Q 18.109375 20.125 21.3125 9.0625 
Q 24.515625 -2 31 -13.1875 
L 23.1875 -13.1875 
Q 15.875 -1.703125 12.234375 9.375 
Q 8.59375 20.453125 8.59375 31.390625 
Q 8.59375 42.28125 12.203125 53.3125 
Q 15.828125 64.359375 23.1875 75.875 
z
" id="DejaVuSans-40"/>
       <path d="M 52 44.1875 
Q 55.375 50.25 60.0625 53.125 
Q 64.75 56 71.09375 56 
Q 79.640625 56 84.28125 50.015625 
Q 88.921875 44.046875 88.921875 33.015625 
L 88.921875 0 
L 79.890625 0 
L 79.890625 32.71875 
Q 79.890625 40.578125 77.09375 44.375 
Q 74.3125 48.1875 68.609375 48.1875 
Q 61.625 48.1875 57.5625 43.546875 
Q 53.515625 38.921875 53.515625 30.90625 
L 53.515625 0 
L 44.484375 0 
L 44.484375 32.71875 
Q 44.484375 40.625 41.703125 44.40625 
Q 38.921875 48.1875 33.109375 48.1875 
Q 26.21875 48.1875 22.15625 43.53125 
Q 18.109375 38.875 18.109375 30.90625 
L 18.109375 0 
L 9.078125 0 
L 9.078125 54.6875 
L 18.109375 54.6875 
L 18.109375 46.1875 
Q 21.1875 51.21875 25.484375 53.609375 
Q 29.78125 56 35.6875 56 
Q 41.65625 56 45.828125 52.96875 
Q 50 49.953125 52 44.1875 
z
" id="DejaVuSans-109"/>
       <path d="M 8.015625 75.875 
L 15.828125 75.875 
Q 23.140625 64.359375 26.78125 53.3125 
Q 30.421875 42.28125 30.421875 31.390625 
Q 30.421875 20.453125 26.78125 9.375 
Q 23.140625 -1.703125 15.828125 -13.1875 
L 8.015625 -13.1875 
Q 14.5 -2 17.703125 9.0625 
Q 20.90625 20.125 20.90625 31.390625 
Q 20.90625 42.671875 17.703125 53.65625 
Q 14.5 64.65625 8.015625 75.875 
z
" id="DejaVuSans-41"/>
      </defs>
      <use xlink:href="#DejaVuSans-68"/>
      <use x="77.001953" xlink:href="#DejaVuSans-105"/>
      <use x="104.785156" xlink:href="#DejaVuSans-115"/>
      <use x="156.884766" xlink:href="#DejaVuSans-116"/>
      <use x="196.09375" xlink:href="#DejaVuSans-97"/>
      <use x="257.373047" xlink:href="#DejaVuSans-110"/>
      <use x="320.751953" xlink:href="#DejaVuSans-99"/>
      <use x="375.732422" xlink:href="#DejaVuSans-101"/>
      <use x="437.255859" xlink:href="#DejaVuSans-32"/>
      <use x="469.042969" xlink:href="#DejaVuSans-40"/>
      <use x="508.056641" xlink:href="#DejaVuSans-109"/>
      <use x="605.46875" xlink:href="#DejaVuSans-41"/>
     </g>
    </g>
   </g>
   <g id="matplotlib.axis_2">
    <g id="ytick_1">
     <g id="line2d_10">
      <defs>
       <path d="M 0 0 
L -3.5 0 
" id="m1ed347dc2e" style="stroke:#000000;stroke-width:0.8;"/>
      </defs>
      <g>
       <use style="stroke:#000000;stroke-width:0.8;" x="56.175" xlink:href="#m1ed347dc2e" y="218.360592"/>
      </g>
     </g>
     <g id="text_11">
      <!-- −1.0 -->
      <g transform="translate(24.892188 222.159811)scale(0.1 -0.1)">
       <defs>
        <path d="M 10.59375 35.5 
L 73.1875 35.5 
L 73.1875 27.203125 
L 10.59375 27.203125 
z
" id="DejaVuSans-8722"/>
        <path d="M 12.40625 8.296875 
L 28.515625 8.296875 
L 28.515625 63.921875 
L 10.984375 60.40625 
L 10.984375 69.390625 
L 28.421875 72.90625 
L 38.28125 72.90625 
L 38.28125 8.296875 
L 54.390625 8.296875 
L 54.390625 0 
L 12.40625 0 
z
" id="DejaVuSans-49"/>
        <path d="M 10.6875 12.40625 
L 21 12.40625 
L 21 0 
L 10.6875 0 
z
" id="DejaVuSans-46"/>
       </defs>
       <use xlink:href="#DejaVuSans-8722"/>
       <use x="83.789062" xlink:href="#DejaVuSans-49"/>
       <use x="147.412109" xlink:href="#DejaVuSans-46"/>
       <use x="179.199219" xlink:href="#DejaVuSans-48"/>
      </g>
     </g>
    </g>
    <g id="ytick_2">
     <g id="line2d_11">
      <g>
       <use style="stroke:#000000;stroke-width:0.8;" x="56.175" xlink:href="#m1ed347dc2e" y="168.528515"/>
      </g>
     </g>
     <g id="text_12">
      <!-- −0.5 -->
      <g transform="translate(24.892188 172.327734)scale(0.1 -0.1)">
       <use xlink:href="#DejaVuSans-8722"/>
       <use x="83.789062" xlink:href="#DejaVuSans-48"/>
       <use x="147.412109" xlink:href="#DejaVuSans-46"/>
       <use x="179.199219" xlink:href="#DejaVuSans-53"/>
      </g>
     </g>
    </g>
    <g id="ytick_3">
     <g id="line2d_12">
      <g>
       <use style="stroke:#000000;stroke-width:0.8;" x="56.175" xlink:href="#m1ed347dc2e" y="118.696439"/>
      </g>
     </g>
     <g id="text_13">
      <!-- 0.0 -->
      <g transform="translate(33.271875 122.495658)scale(0.1 -0.1)">
       <use xlink:href="#DejaVuSans-48"/>
       <use x="63.623047" xlink:href="#DejaVuSans-46"/>
       <use x="95.410156" xlink:href="#DejaVuSans-48"/>
      </g>
     </g>
    </g>
    <g id="ytick_4">
     <g id="line2d_13">
      <g>
       <use style="stroke:#000000;stroke-width:0.8;" x="56.175" xlink:href="#m1ed347dc2e" y="68.864363"/>
      </g>
     </g>
     <g id="text_14">
      <!-- 0.5 -->
      <g transform="translate(33.271875 72.663581)scale(0.1 -0.1)">
       <use xlink:href="#DejaVuSans-48"/>
       <use x="63.623047" xlink:href="#DejaVuSans-46"/>
       <use x="95.410156" xlink:href="#DejaVuSans-53"/>
      </g>
     </g>
    </g>
    <g id="ytick_5">
     <g id="line2d_14">
      <g>
       <use style="stroke:#000000;stroke-width:0.8;" x="56.175" xlink:href="#m1ed347dc2e" y="19.032286"/>
      </g>
     </g>
     <g id="text_15">
      <!-- 1.0 -->
      <g transform="translate(33.271875 22.831505)scale(0.1 -0.1)">
       <use xlink:href="#DejaVuSans-49"/>
       <use x="63.623047" xlink:href="#DejaVuSans-46"/>
       <use x="95.410156" xlink:href="#DejaVuSans-48"/>
      </g>
     </g>
    </g>
    <g id="text_16">
     <!-- Elevation (m) -->
     <g transform="translate(18.8125 162.086719)rotate(-90)scale(0.1 -0.1)">
      <defs>
       <path d="M 9.8125 72.90625 
L 55.90625 72.90625 
L 55.90625 64.59375 
L 19.671875 64.59375 
L 19.671875 43.015625 
L 54.390625 43.015625 
L 54.390625 34.71875 
L 19.671875 34.71875 
L 19.671875 8.296875 
L 56.78125 8.296875 
L 56.78125 0 
L 9.8125 0 
z
" id="DejaVuSans-69"/>
       <path d="M 9.421875 75.984375 
L 18.40625 75.984375 
L 18.40625 0 
L 9.421875 0 
z
" id="DejaVuSans-108"/>
       <path d="M 2.984375 54.6875 
L 12.5 54.6875 
L 29.59375 8.796875 
L 46.6875 54.6875 
L 56.203125 54.6875 
L 35.6875 0 
L 23.484375 0 
z
" id="DejaVuSans-118"/>
       <path d="M 30.609375 48.390625 
Q 23.390625 48.390625 19.1875 42.75 
Q 14.984375 37.109375 14.984375 27.296875 
Q 14.984375 17.484375 19.15625 11.84375 
Q 23.34375 6.203125 30.609375 6.203125 
Q 37.796875 6.203125 41.984375 11.859375 
Q 46.1875 17.53125 46.1875 27.296875 
Q 46.1875 37.015625 41.984375 42.703125 
Q 37.796875 48.390625 30.609375 48.390625 
z
M 30.609375 56 
Q 42.328125 56 49.015625 48.375 
Q 55.71875 40.765625 55.71875 27.296875 
Q 55.71875 13.875 49.015625 6.21875 
Q 42.328125 -1.421875 30.609375 -1.421875 
Q 18.84375 -1.421875 12.171875 6.21875 
Q 5.515625 13.875 5.515625 27.296875 
Q 5.515625 40.765625 12.171875 48.375 
Q 18.84375 56 30.609375 56 
z
" id="DejaVuSans-111"/>
      </defs>
      <use xlink:href="#DejaVuSans-69"/>
      <use x="63.183594" xlink:href="#DejaVuSans-108"/>
      <use x="90.966797" xlink:href="#DejaVuSans-101"/>
      <use x="152.490234" xlink:href="#DejaVuSans-118"/>
      <use x="211.669922" xlink:href="#DejaVuSans-97"/>
      <use x="272.949219" xlink:href="#DejaVuSans-116"/>
      <use x="312.158203" xlink:href="#DejaVuSans-105"/>
      <use x="339.941406" xlink:href="#DejaVuSans-111"/>
      <use x="401.123047" xlink:href="#DejaVuSans-110"/>
      <use x="464.501953" xlink:href="#DejaVuSans-32"/>
      <use x="496.289062" xlink:href="#DejaVuSans-40"/>
      <use x="535.302734" xlink:href="#DejaVuSans-109"/>
      <use x="632.714844" xlink:href="#DejaVuSans-41"/>
     </g>
    </g>
   </g>
   <g id="line2d_15">
    <path clip-path="url(#pe10edff0e8)" d="M 72.767045 121.124217 
L 77.076668 121.185916 
L 81.38629 121.12549 
L 85.695912 120.957414 
L 90.005534 120.701258 
L 94.315156 120.377799 
L 98.624779 120.008887 
L 102.934401 119.614127 
L 107.244023 119.210672 
L 111.553645 118.811176 
L 115.863267 118.424048 
L 120.17289 118.052878 
L 124.482512 117.69735 
L 128.792134 117.353873 
L 133.101756 117.017 
L 137.411378 116.68073 
L 141.721001 116.340061 
L 146.030623 115.992366 
L 150.340245 115.638649 
L 154.649867 115.284492 
L 158.959489 114.940682 
L 163.269112 114.623437 
L 167.578734 114.354277 
L 171.888356 114.159495 
L 176.197978 114.069432 
L 180.5076 114.117376 
L 184.817223 114.338643 
L 189.126845 114.76914 
L 193.436467 115.444766 
L 197.746089 116.399738 
L 202.055711 117.666711 
L 206.365334 119.274791 
L 210.674956 121.250287 
L 214.984578 123.61381 
L 219.2942 126.382424 
L 223.603822 129.567898 
L 227.913445 133.180821 
L 232.223067 137.196537 
L 236.532689 141.628849 
L 240.842311 146.535847 
L 245.151933 143.073745 
L 249.461555 140.0549 
L 253.771178 137.390167 
L 258.0808 135.035534 
L 262.390422 132.986925 
L 266.700044 131.207319 
L 271.009666 129.661809 
L 275.319289 128.314578 
L 279.628911 127.131713 
L 283.938533 126.079965 
L 288.248155 125.130244 
L 292.557777 124.257065 
L 296.8674 123.440208 
L 301.177022 122.663793 
L 305.486644 121.916659 
L 309.796266 121.191326 
L 314.105888 120.483574 
L 318.415511 119.791469 
L 322.725133 119.11471 
L 327.034755 118.453895 
L 331.344377 117.810029 
L 335.653999 117.184129 
L 339.963622 116.577021 
L 344.273244 115.98927 
L 348.582866 115.421223 
L 352.892488 114.873148 
L 357.20211 114.345409 
L 361.511733 113.83867 
L 365.821355 113.354069 
L 370.130977 112.893361 
L 374.440599 112.45899 
L 378.750221 112.054084 
L 383.059844 111.68236 
L 387.369466 111.347942 
L 391.679088 111.055104 
L 395.98871 110.807948 
L 400.298332 110.610059 
L 404.607955 110.464153 
" style="fill:none;stroke:#8c564b;stroke-linecap:square;stroke-width:1.5;"/>
   </g>
   <g id="line2d_16">
    <path clip-path="url(#pe10edff0e8)" d="M 72.767045 143.317467 
L 77.076668 143.350615 
L 81.38629 143.386093 
L 85.695912 143.423901 
L 90.005534 143.46404 
L 94.315156 143.506509 
L 98.624779 143.551309 
L 102.934401 143.598439 
L 107.244023 143.647899 
L 111.553645 143.69969 
L 115.863267 143.753811 
L 120.17289 143.810262 
L 124.482512 143.869044 
L 128.792134 143.930156 
L 133.101756 143.993599 
L 137.411378 144.059372 
L 141.721001 144.127475 
L 146.030623 144.197909 
L 150.340245 144.270673 
L 154.649867 144.345767 
L 158.959489 144.423192 
L 163.269112 144.502947 
L 167.578734 144.585033 
L 171.888356 144.669449 
L 176.197978 144.756195 
L 180.5076 144.845272 
L 184.817223 144.936679 
L 189.126845 145.030416 
L 193.436467 145.126484 
L 197.746089 145.224882 
L 202.055711 145.325611 
L 206.365334 145.42867 
L 210.674956 145.534059 
L 214.984578 145.641779 
L 219.2942 145.751829 
L 223.603822 145.864209 
L 227.913445 145.97892 
L 232.223067 146.095961 
L 236.532689 146.215333 
L 240.842311 146.337035 
L 245.151933 146.200294 
L 249.461555 146.065883 
L 253.771178 145.933802 
L 258.0808 145.804052 
L 262.390422 145.676633 
L 266.700044 145.551543 
L 271.009666 145.428785 
L 275.319289 145.308356 
L 279.628911 145.190258 
L 283.938533 145.07449 
L 288.248155 144.961053 
L 292.557777 144.849946 
L 296.8674 144.741169 
L 301.177022 144.634723 
L 305.486644 144.530607 
L 309.796266 144.428821 
L 314.105888 144.329366 
L 318.415511 144.232241 
L 322.725133 144.137447 
L 327.034755 144.044983 
L 331.344377 143.954849 
L 335.653999 143.867046 
L 339.963622 143.781573 
L 344.273244 143.698431 
L 348.582866 143.617618 
L 352.892488 143.539137 
L 357.20211 143.462985 
L 361.511733 143.389164 
L 365.821355 143.317674 
L 370.130977 143.248513 
L 374.440599 143.181683 
L 378.750221 143.117184 
L 383.059844 143.055015 
L 387.369466 142.995176 
L 391.679088 142.937668 
L 395.98871 142.88249 
L 400.298332 142.829642 
L 404.607955 142.779125 
" style="fill:none;stroke:#1f77b4;stroke-linecap:square;stroke-width:1.5;"/>
   </g>
   <g id="patch_3">
    <path d="M 56.175 246.2 
L 56.175 10.8 
" style="fill:none;stroke:#000000;stroke-linecap:square;stroke-linejoin:miter;stroke-width:0.8;"/>
   </g>
   <g id="patch_4">
    <path d="M 56.175 246.2 
L 421.2 246.2 
" style="fill:none;stroke:#000000;stroke-linecap:square;stroke-linejoin:miter;stroke-width:0.8;"/>
   </g>
   <g id="legend_1">
    <g id="patch_5">
     <path d="M 219.725 92.190625 
L 414.2 92.190625 
Q 416.2 92.190625 416.2 90.190625 
L 416.2 17.8 
Q 416.2 15.8 414.2 15.8 
L 219.725 15.8 
Q 217.725 15.8 217.725 17.8 
L 217.725 90.190625 
Q 217.725 92.190625 219.725 92.190625 
z
" style="fill:#ffffff;opacity:0.8;stroke:#cccccc;stroke-linejoin:miter;"/>
    </g>
    <g id="line2d_17">
     <path d="M 221.725 23.898438 
L 241.725 23.898438 
" style="fill:none;stroke:#8c564b;stroke-linecap:square;stroke-width:1.5;"/>
    </g>
    <g id="line2d_18"/>
    <g id="text_17">
     <!-- Land surface -->
     <g transform="translate(249.725 27.398438)scale(0.1 -0.1)">
      <defs>
       <path d="M 9.8125 72.90625 
L 19.671875 72.90625 
L 19.671875 8.296875 
L 55.171875 8.296875 
L 55.171875 0 
L 9.8125 0 
z
" id="DejaVuSans-76"/>
       <path d="M 45.40625 46.390625 
L 45.40625 75.984375 
L 54.390625 75.984375 
L 54.390625 0 
L 45.40625 0 
L 45.40625 8.203125 
Q 42.578125 3.328125 38.25 0.953125 
Q 33.9375 -1.421875 27.875 -1.421875 
Q 17.96875 -1.421875 11.734375 6.484375 
Q 5.515625 14.40625 5.515625 27.296875 
Q 5.515625 40.1875 11.734375 48.09375 
Q 17.96875 56 27.875 56 
Q 33.9375 56 38.25 53.625 
Q 42.578125 51.265625 45.40625 46.390625 
z
M 14.796875 27.296875 
Q 14.796875 17.390625 18.875 11.75 
Q 22.953125 6.109375 30.078125 6.109375 
Q 37.203125 6.109375 41.296875 11.75 
Q 45.40625 17.390625 45.40625 27.296875 
Q 45.40625 37.203125 41.296875 42.84375 
Q 37.203125 48.484375 30.078125 48.484375 
Q 22.953125 48.484375 18.875 42.84375 
Q 14.796875 37.203125 14.796875 27.296875 
z
" id="DejaVuSans-100"/>
       <path d="M 8.5 21.578125 
L 8.5 54.6875 
L 17.484375 54.6875 
L 17.484375 21.921875 
Q 17.484375 14.15625 20.5 10.265625 
Q 23.53125 6.390625 29.59375 6.390625 
Q 36.859375 6.390625 41.078125 11.03125 
Q 45.3125 15.671875 45.3125 23.6875 
L 45.3125 54.6875 
L 54.296875 54.6875 
L 54.296875 0 
L 45.3125 0 
L 45.3125 8.40625 
Q 42.046875 3.421875 37.71875 1 
Q 33.40625 -1.421875 27.6875 -1.421875 
Q 18.265625 -1.421875 13.375 4.4375 
Q 8.5 10.296875 8.5 21.578125 
z
M 31.109375 56 
z
" id="DejaVuSans-117"/>
       <path d="M 41.109375 46.296875 
Q 39.59375 47.171875 37.8125 47.578125 
Q 36.03125 48 33.890625 48 
Q 26.265625 48 22.1875 43.046875 
Q 18.109375 38.09375 18.109375 28.8125 
L 18.109375 0 
L 9.078125 0 
L 9.078125 54.6875 
L 18.109375 54.6875 
L 18.109375 46.1875 
Q 20.953125 51.171875 25.484375 53.578125 
Q 30.03125 56 36.53125 56 
Q 37.453125 56 38.578125 55.875 
Q 39.703125 55.765625 41.0625 55.515625 
z
" id="DejaVuSans-114"/>
       <path d="M 37.109375 75.984375 
L 37.109375 68.5 
L 28.515625 68.5 
Q 23.6875 68.5 21.796875 66.546875 
Q 19.921875 64.59375 19.921875 59.515625 
L 19.921875 54.6875 
L 34.71875 54.6875 
L 34.71875 47.703125 
L 19.921875 47.703125 
L 19.921875 0 
L 10.890625 0 
L 10.890625 47.703125 
L 2.296875 47.703125 
L 2.296875 54.6875 
L 10.890625 54.6875 
L 10.890625 58.5 
Q 10.890625 67.625 15.140625 71.796875 
Q 19.390625 75.984375 28.609375 75.984375 
z
" id="DejaVuSans-102"/>
      </defs>
      <use xlink:href="#DejaVuSans-76"/>
      <use x="55.712891" xlink:href="#DejaVuSans-97"/>
      <use x="116.992188" xlink:href="#DejaVuSans-110"/>
      <use x="180.371094" xlink:href="#DejaVuSans-100"/>
      <use x="243.847656" xlink:href="#DejaVuSans-32"/>
      <use x="275.634766" xlink:href="#DejaVuSans-115"/>
      <use x="327.734375" xlink:href="#DejaVuSans-117"/>
      <use x="391.113281" xlink:href="#DejaVuSans-114"/>
      <use x="432.226562" xlink:href="#DejaVuSans-102"/>
      <use x="467.431641" xlink:href="#DejaVuSans-97"/>
      <use x="528.710938" xlink:href="#DejaVuSans-99"/>
      <use x="583.691406" xlink:href="#DejaVuSans-101"/>
     </g>
    </g>
    <g id="line2d_19">
     <path d="M 221.725 38.576562 
L 241.725 38.576562 
" style="fill:none;stroke:#1f77b4;stroke-linecap:square;stroke-width:1.5;"/>
    </g>
    <g id="line2d_20"/>
    <g id="text_18">
     <!-- Watertable -->
     <g transform="translate(249.725 42.076562)scale(0.1 -0.1)">
      <defs>
       <path d="M 3.328125 72.90625 
L 13.28125 72.90625 
L 28.609375 11.28125 
L 43.890625 72.90625 
L 54.984375 72.90625 
L 70.3125 11.28125 
L 85.59375 72.90625 
L 95.609375 72.90625 
L 77.296875 0 
L 64.890625 0 
L 49.515625 63.28125 
L 33.984375 0 
L 21.578125 0 
z
" id="DejaVuSans-87"/>
       <path d="M 48.6875 27.296875 
Q 48.6875 37.203125 44.609375 42.84375 
Q 40.53125 48.484375 33.40625 48.484375 
Q 26.265625 48.484375 22.1875 42.84375 
Q 18.109375 37.203125 18.109375 27.296875 
Q 18.109375 17.390625 22.1875 11.75 
Q 26.265625 6.109375 33.40625 6.109375 
Q 40.53125 6.109375 44.609375 11.75 
Q 48.6875 17.390625 48.6875 27.296875 
z
M 18.109375 46.390625 
Q 20.953125 51.265625 25.265625 53.625 
Q 29.59375 56 35.59375 56 
Q 45.5625 56 51.78125 48.09375 
Q 58.015625 40.1875 58.015625 27.296875 
Q 58.015625 14.40625 51.78125 6.484375 
Q 45.5625 -1.421875 35.59375 -1.421875 
Q 29.59375 -1.421875 25.265625 0.953125 
Q 20.953125 3.328125 18.109375 8.203125 
L 18.109375 0 
L 9.078125 0 
L 9.078125 75.984375 
L 18.109375 75.984375 
z
" id="DejaVuSans-98"/>
      </defs>
      <use xlink:href="#DejaVuSans-87"/>
      <use x="92.501953" xlink:href="#DejaVuSans-97"/>
      <use x="153.78125" xlink:href="#DejaVuSans-116"/>
      <use x="192.990234" xlink:href="#DejaVuSans-101"/>
      <use x="254.513672" xlink:href="#DejaVuSans-114"/>
      <use x="295.626953" xlink:href="#DejaVuSans-116"/>
      <use x="334.835938" xlink:href="#DejaVuSans-97"/>
      <use x="396.115234" xlink:href="#DejaVuSans-98"/>
      <use x="459.591797" xlink:href="#DejaVuSans-108"/>
      <use x="487.375" xlink:href="#DejaVuSans-101"/>
     </g>
    </g>
    <g id="patch_6">
     <path d="M 221.725 56.754687 
L 241.725 56.754687 
L 241.725 49.754687 
L 221.725 49.754687 
z
" style="fill:#add8e6;stroke:#add8e6;stroke-linejoin:miter;"/>
    </g>
    <g id="text_19">
     <!-- Added precipitation -->
     <g transform="translate(249.725 56.754687)scale(0.1 -0.1)">
      <defs>
       <path d="M 34.1875 63.1875 
L 20.796875 26.90625 
L 47.609375 26.90625 
z
M 28.609375 72.90625 
L 39.796875 72.90625 
L 67.578125 0 
L 57.328125 0 
L 50.6875 18.703125 
L 17.828125 18.703125 
L 11.1875 0 
L 0.78125 0 
z
" id="DejaVuSans-65"/>
       <path d="M 18.109375 8.203125 
L 18.109375 -20.796875 
L 9.078125 -20.796875 
L 9.078125 54.6875 
L 18.109375 54.6875 
L 18.109375 46.390625 
Q 20.953125 51.265625 25.265625 53.625 
Q 29.59375 56 35.59375 56 
Q 45.5625 56 51.78125 48.09375 
Q 58.015625 40.1875 58.015625 27.296875 
Q 58.015625 14.40625 51.78125 6.484375 
Q 45.5625 -1.421875 35.59375 -1.421875 
Q 29.59375 -1.421875 25.265625 0.953125 
Q 20.953125 3.328125 18.109375 8.203125 
z
M 48.6875 27.296875 
Q 48.6875 37.203125 44.609375 42.84375 
Q 40.53125 48.484375 33.40625 48.484375 
Q 26.265625 48.484375 22.1875 42.84375 
Q 18.109375 37.203125 18.109375 27.296875 
Q 18.109375 17.390625 22.1875 11.75 
Q 26.265625 6.109375 33.40625 6.109375 
Q 40.53125 6.109375 44.609375 11.75 
Q 48.6875 17.390625 48.6875 27.296875 
z
" id="DejaVuSans-112"/>
      </defs>
      <use xlink:href="#DejaVuSans-65"/>
      <use x="66.658203" xlink:href="#DejaVuSans-100"/>
      <use x="130.134766" xlink:href="#DejaVuSans-100"/>
      <use x="193.611328" xlink:href="#DejaVuSans-101"/>
      <use x="255.134766" xlink:href="#DejaVuSans-100"/>
      <use x="318.611328" xlink:href="#DejaVuSans-32"/>
      <use x="350.398438" xlink:href="#DejaVuSans-112"/>
      <use x="413.875" xlink:href="#DejaVuSans-114"/>
      <use x="452.738281" xlink:href="#DejaVuSans-101"/>
      <use x="514.261719" xlink:href="#DejaVuSans-99"/>
      <use x="569.242188" xlink:href="#DejaVuSans-105"/>
      <use x="597.025391" xlink:href="#DejaVuSans-112"/>
      <use x="660.501953" xlink:href="#DejaVuSans-105"/>
      <use x="688.285156" xlink:href="#DejaVuSans-116"/>
      <use x="727.494141" xlink:href="#DejaVuSans-97"/>
      <use x="788.773438" xlink:href="#DejaVuSans-116"/>
      <use x="827.982422" xlink:href="#DejaVuSans-105"/>
      <use x="855.765625" xlink:href="#DejaVuSans-111"/>
      <use x="916.947266" xlink:href="#DejaVuSans-110"/>
     </g>
    </g>
    <g id="PathCollection_1">
     <defs>
      <path d="M 0 1.581139 
C 0.419323 1.581139 0.821528 1.41454 1.118034 1.118034 
C 1.41454 0.821528 1.581139 0.419323 1.581139 0 
C 1.581139 -0.419323 1.41454 -0.821528 1.118034 -1.118034 
C 0.821528 -1.41454 0.419323 -1.581139 0 -1.581139 
C -0.419323 -1.581139 -0.821528 -1.41454 -1.118034 -1.118034 
C -1.41454 -0.821528 -1.581139 -0.419323 -1.581139 0 
C -1.581139 0.419323 -1.41454 0.821528 -1.118034 1.118034 
C -0.821528 1.41454 -0.419323 1.581139 0 1.581139 
z
" id="m37f135f9f9" style="stroke:#00008b;"/>
     </defs>
     <g>
      <use style="fill:#00008b;stroke:#00008b;" x="231.725" xlink:href="#m37f135f9f9" y="68.807813"/>
     </g>
    </g>
    <g id="text_20">
     <!-- Nodes with saturation excess -->
     <g transform="translate(249.725 71.432813)scale(0.1 -0.1)">
      <defs>
       <path d="M 9.8125 72.90625 
L 23.09375 72.90625 
L 55.421875 11.921875 
L 55.421875 72.90625 
L 64.984375 72.90625 
L 64.984375 0 
L 51.703125 0 
L 19.390625 60.984375 
L 19.390625 0 
L 9.8125 0 
z
" id="DejaVuSans-78"/>
       <path d="M 4.203125 54.6875 
L 13.1875 54.6875 
L 24.421875 12.015625 
L 35.59375 54.6875 
L 46.1875 54.6875 
L 57.421875 12.015625 
L 68.609375 54.6875 
L 77.59375 54.6875 
L 63.28125 0 
L 52.6875 0 
L 40.921875 44.828125 
L 29.109375 0 
L 18.5 0 
z
" id="DejaVuSans-119"/>
       <path d="M 54.890625 33.015625 
L 54.890625 0 
L 45.90625 0 
L 45.90625 32.71875 
Q 45.90625 40.484375 42.875 44.328125 
Q 39.84375 48.1875 33.796875 48.1875 
Q 26.515625 48.1875 22.3125 43.546875 
Q 18.109375 38.921875 18.109375 30.90625 
L 18.109375 0 
L 9.078125 0 
L 9.078125 75.984375 
L 18.109375 75.984375 
L 18.109375 46.1875 
Q 21.34375 51.125 25.703125 53.5625 
Q 30.078125 56 35.796875 56 
Q 45.21875 56 50.046875 50.171875 
Q 54.890625 44.34375 54.890625 33.015625 
z
" id="DejaVuSans-104"/>
       <path d="M 54.890625 54.6875 
L 35.109375 28.078125 
L 55.90625 0 
L 45.3125 0 
L 29.390625 21.484375 
L 13.484375 0 
L 2.875 0 
L 24.125 28.609375 
L 4.6875 54.6875 
L 15.28125 54.6875 
L 29.78125 35.203125 
L 44.28125 54.6875 
z
" id="DejaVuSans-120"/>
      </defs>
      <use xlink:href="#DejaVuSans-78"/>
      <use x="74.804688" xlink:href="#DejaVuSans-111"/>
      <use x="135.986328" xlink:href="#DejaVuSans-100"/>
      <use x="199.462891" xlink:href="#DejaVuSans-101"/>
      <use x="260.986328" xlink:href="#DejaVuSans-115"/>
      <use x="313.085938" xlink:href="#DejaVuSans-32"/>
      <use x="344.873047" xlink:href="#DejaVuSans-119"/>
      <use x="426.660156" xlink:href="#DejaVuSans-105"/>
      <use x="454.443359" xlink:href="#DejaVuSans-116"/>
      <use x="493.652344" xlink:href="#DejaVuSans-104"/>
      <use x="557.03125" xlink:href="#DejaVuSans-32"/>
      <use x="588.818359" xlink:href="#DejaVuSans-115"/>
      <use x="640.917969" xlink:href="#DejaVuSans-97"/>
      <use x="702.197266" xlink:href="#DejaVuSans-116"/>
      <use x="741.40625" xlink:href="#DejaVuSans-117"/>
      <use x="804.785156" xlink:href="#DejaVuSans-114"/>
      <use x="845.898438" xlink:href="#DejaVuSans-97"/>
      <use x="907.177734" xlink:href="#DejaVuSans-116"/>
      <use x="946.386719" xlink:href="#DejaVuSans-105"/>
      <use x="974.169922" xlink:href="#DejaVuSans-111"/>
      <use x="1035.351562" xlink:href="#DejaVuSans-110"/>
      <use x="1098.730469" xlink:href="#DejaVuSans-32"/>
      <use x="1130.517578" xlink:href="#DejaVuSans-101"/>
      <use x="1190.291016" xlink:href="#DejaVuSans-120"/>
      <use x="1247.720703" xlink:href="#DejaVuSans-99"/>
      <use x="1302.701172" xlink:href="#DejaVuSans-101"/>
      <use x="1364.224609" xlink:href="#DejaVuSans-115"/>
      <use x="1416.324219" xlink:href="#DejaVuSans-115"/>
     </g>
    </g>
    <g id="PathCollection_2">
     <defs>
      <path d="M 0 0.707107 
C 0.187527 0.707107 0.367398 0.632602 0.5 0.5 
C 0.632602 0.367398 0.707107 0.187527 0.707107 0 
C 0.707107 -0.187527 0.632602 -0.367398 0.5 -0.5 
C 0.367398 -0.632602 0.187527 -0.707107 0 -0.707107 
C -0.187527 -0.707107 -0.367398 -0.632602 -0.5 -0.5 
C -0.632602 -0.367398 -0.707107 -0.187527 -0.707107 0 
C -0.707107 0.187527 -0.632602 0.367398 -0.5 0.5 
C -0.367398 0.632602 -0.187527 0.707107 0 0.707107 
z
" id="mceafb307e5" style="stroke:#000000;stroke-width:0.25;"/>
     </defs>
     <g>
      <use style="fill:#1f77b4;stroke:#000000;stroke-width:0.25;" x="231.725" xlink:href="#mceafb307e5" y="83.485938"/>
     </g>
    </g>
    <g id="text_21">
     <!-- Nodes with no saturation excess -->
     <g transform="translate(249.725 86.110938)scale(0.1 -0.1)">
      <use xlink:href="#DejaVuSans-78"/>
      <use x="74.804688" xlink:href="#DejaVuSans-111"/>
      <use x="135.986328" xlink:href="#DejaVuSans-100"/>
      <use x="199.462891" xlink:href="#DejaVuSans-101"/>
      <use x="260.986328" xlink:href="#DejaVuSans-115"/>
      <use x="313.085938" xlink:href="#DejaVuSans-32"/>
      <use x="344.873047" xlink:href="#DejaVuSans-119"/>
      <use x="426.660156" xlink:href="#DejaVuSans-105"/>
      <use x="454.443359" xlink:href="#DejaVuSans-116"/>
      <use x="493.652344" xlink:href="#DejaVuSans-104"/>
      <use x="557.03125" xlink:href="#DejaVuSans-32"/>
      <use x="588.818359" xlink:href="#DejaVuSans-110"/>
      <use x="652.197266" xlink:href="#DejaVuSans-111"/>
      <use x="713.378906" xlink:href="#DejaVuSans-32"/>
      <use x="745.166016" xlink:href="#DejaVuSans-115"/>
      <use x="797.265625" xlink:href="#DejaVuSans-97"/>
      <use x="858.544922" xlink:href="#DejaVuSans-116"/>
      <use x="897.753906" xlink:href="#DejaVuSans-117"/>
      <use x="961.132812" xlink:href="#DejaVuSans-114"/>
      <use x="1002.246094" xlink:href="#DejaVuSans-97"/>
      <use x="1063.525391" xlink:href="#DejaVuSans-116"/>
      <use x="1102.734375" xlink:href="#DejaVuSans-105"/>
      <use x="1130.517578" xlink:href="#DejaVuSans-111"/>
      <use x="1191.699219" xlink:href="#DejaVuSans-110"/>
      <use x="1255.078125" xlink:href="#DejaVuSans-32"/>
      <use x="1286.865234" xlink:href="#DejaVuSans-101"/>
      <use x="1346.638672" xlink:href="#DejaVuSans-120"/>
      <use x="1404.068359" xlink:href="#DejaVuSans-99"/>
      <use x="1459.048828" xlink:href="#DejaVuSans-101"/>
      <use x="1520.572266" xlink:href="#DejaVuSans-115"/>
      <use x="1572.671875" xlink:href="#DejaVuSans-115"/>
     </g>
    </g>
   </g>
   <g id="PathCollection_3">
    <g clip-path="url(#pe10edff0e8)">
     <use style="fill:#1f77b4;stroke:#000000;stroke-width:0.25;" x="72.767045" xlink:href="#mceafb307e5" y="121.124217"/>
     <use style="fill:#1f77b4;stroke:#000000;stroke-width:0.25;" x="77.076668" xlink:href="#mceafb307e5" y="121.185916"/>
     <use style="fill:#1f77b4;stroke:#000000;stroke-width:0.25;" x="81.38629" xlink:href="#mceafb307e5" y="121.12549"/>
     <use style="fill:#1f77b4;stroke:#000000;stroke-width:0.25;" x="85.695912" xlink:href="#mceafb307e5" y="120.957414"/>
     <use style="fill:#1f77b4;stroke:#000000;stroke-width:0.25;" x="90.005534" xlink:href="#mceafb307e5" y="120.701258"/>
     <use style="fill:#1f77b4;stroke:#000000;stroke-width:0.25;" x="94.315156" xlink:href="#mceafb307e5" y="120.377799"/>
     <use style="fill:#1f77b4;stroke:#000000;stroke-width:0.25;" x="98.624779" xlink:href="#mceafb307e5" y="120.008887"/>
     <use style="fill:#1f77b4;stroke:#000000;stroke-width:0.25;" x="102.934401" xlink:href="#mceafb307e5" y="119.614127"/>
     <use style="fill:#1f77b4;stroke:#000000;stroke-width:0.25;" x="107.244023" xlink:href="#mceafb307e5" y="119.210672"/>
     <use style="fill:#1f77b4;stroke:#000000;stroke-width:0.25;" x="111.553645" xlink:href="#mceafb307e5" y="118.811176"/>
     <use style="fill:#1f77b4;stroke:#000000;stroke-width:0.25;" x="115.863267" xlink:href="#mceafb307e5" y="118.424048"/>
     <use style="fill:#1f77b4;stroke:#000000;stroke-width:0.25;" x="120.17289" xlink:href="#mceafb307e5" y="118.052878"/>
     <use style="fill:#1f77b4;stroke:#000000;stroke-width:0.25;" x="124.482512" xlink:href="#mceafb307e5" y="117.69735"/>
     <use style="fill:#1f77b4;stroke:#000000;stroke-width:0.25;" x="128.792134" xlink:href="#mceafb307e5" y="117.353873"/>
     <use style="fill:#1f77b4;stroke:#000000;stroke-width:0.25;" x="133.101756" xlink:href="#mceafb307e5" y="117.017"/>
     <use style="fill:#1f77b4;stroke:#000000;stroke-width:0.25;" x="137.411378" xlink:href="#mceafb307e5" y="116.68073"/>
     <use style="fill:#1f77b4;stroke:#000000;stroke-width:0.25;" x="141.721001" xlink:href="#mceafb307e5" y="116.340061"/>
     <use style="fill:#1f77b4;stroke:#000000;stroke-width:0.25;" x="146.030623" xlink:href="#mceafb307e5" y="115.992366"/>
     <use style="fill:#1f77b4;stroke:#000000;stroke-width:0.25;" x="150.340245" xlink:href="#mceafb307e5" y="115.638649"/>
     <use style="fill:#1f77b4;stroke:#000000;stroke-width:0.25;" x="154.649867" xlink:href="#mceafb307e5" y="115.284492"/>
     <use style="fill:#1f77b4;stroke:#000000;stroke-width:0.25;" x="158.959489" xlink:href="#mceafb307e5" y="114.940682"/>
     <use style="fill:#1f77b4;stroke:#000000;stroke-width:0.25;" x="163.269112" xlink:href="#mceafb307e5" y="114.623437"/>
     <use style="fill:#1f77b4;stroke:#000000;stroke-width:0.25;" x="167.578734" xlink:href="#mceafb307e5" y="114.354277"/>
     <use style="fill:#1f77b4;stroke:#000000;stroke-width:0.25;" x="171.888356" xlink:href="#mceafb307e5" y="114.159495"/>
     <use style="fill:#1f77b4;stroke:#000000;stroke-width:0.25;" x="176.197978" xlink:href="#mceafb307e5" y="114.069432"/>
     <use style="fill:#1f77b4;stroke:#000000;stroke-width:0.25;" x="180.5076" xlink:href="#mceafb307e5" y="114.117376"/>
     <use style="fill:#1f77b4;stroke:#000000;stroke-width:0.25;" x="184.817223" xlink:href="#mceafb307e5" y="114.338643"/>
     <use style="fill:#1f77b4;stroke:#000000;stroke-width:0.25;" x="189.126845" xlink:href="#mceafb307e5" y="114.76914"/>
     <use style="fill:#1f77b4;stroke:#000000;stroke-width:0.25;" x="193.436467" xlink:href="#mceafb307e5" y="115.444766"/>
     <use style="fill:#1f77b4;stroke:#000000;stroke-width:0.25;" x="197.746089" xlink:href="#mceafb307e5" y="116.399738"/>
     <use style="fill:#1f77b4;stroke:#000000;stroke-width:0.25;" x="202.055711" xlink:href="#mceafb307e5" y="117.666711"/>
     <use style="fill:#1f77b4;stroke:#000000;stroke-width:0.25;" x="206.365334" xlink:href="#mceafb307e5" y="119.274791"/>
     <use style="fill:#1f77b4;stroke:#000000;stroke-width:0.25;" x="210.674956" xlink:href="#mceafb307e5" y="121.250287"/>
     <use style="fill:#1f77b4;stroke:#000000;stroke-width:0.25;" x="214.984578" xlink:href="#mceafb307e5" y="123.61381"/>
     <use style="fill:#1f77b4;stroke:#000000;stroke-width:0.25;" x="219.2942" xlink:href="#mceafb307e5" y="126.382424"/>
     <use style="fill:#1f77b4;stroke:#000000;stroke-width:0.25;" x="223.603822" xlink:href="#mceafb307e5" y="129.567898"/>
     <use style="fill:#1f77b4;stroke:#000000;stroke-width:0.25;" x="266.700044" xlink:href="#mceafb307e5" y="131.207319"/>
     <use style="fill:#1f77b4;stroke:#000000;stroke-width:0.25;" x="271.009666" xlink:href="#mceafb307e5" y="129.661809"/>
     <use style="fill:#1f77b4;stroke:#000000;stroke-width:0.25;" x="275.319289" xlink:href="#mceafb307e5" y="128.314578"/>
     <use style="fill:#1f77b4;stroke:#000000;stroke-width:0.25;" x="279.628911" xlink:href="#mceafb307e5" y="127.131713"/>
     <use style="fill:#1f77b4;stroke:#000000;stroke-width:0.25;" x="283.938533" xlink:href="#mceafb307e5" y="126.079965"/>
     <use style="fill:#1f77b4;stroke:#000000;stroke-width:0.25;" x="288.248155" xlink:href="#mceafb307e5" y="125.130244"/>
     <use style="fill:#1f77b4;stroke:#000000;stroke-width:0.25;" x="292.557777" xlink:href="#mceafb307e5" y="124.257065"/>
     <use style="fill:#1f77b4;stroke:#000000;stroke-width:0.25;" x="296.8674" xlink:href="#mceafb307e5" y="123.440208"/>
     <use style="fill:#1f77b4;stroke:#000000;stroke-width:0.25;" x="301.177022" xlink:href="#mceafb307e5" y="122.663793"/>
     <use style="fill:#1f77b4;stroke:#000000;stroke-width:0.25;" x="305.486644" xlink:href="#mceafb307e5" y="121.916659"/>
     <use style="fill:#1f77b4;stroke:#000000;stroke-width:0.25;" x="309.796266" xlink:href="#mceafb307e5" y="121.191326"/>
     <use style="fill:#1f77b4;stroke:#000000;stroke-width:0.25;" x="314.105888" xlink:href="#mceafb307e5" y="120.483574"/>
     <use style="fill:#1f77b4;stroke:#000000;stroke-width:0.25;" x="318.415511" xlink:href="#mceafb307e5" y="119.791469"/>
     <use style="fill:#1f77b4;stroke:#000000;stroke-width:0.25;" x="322.725133" xlink:href="#mceafb307e5" y="119.11471"/>
     <use style="fill:#1f77b4;stroke:#000000;stroke-width:0.25;" x="327.034755" xlink:href="#mceafb307e5" y="118.453895"/>
     <use style="fill:#1f77b4;stroke:#000000;stroke-width:0.25;" x="331.344377" xlink:href="#mceafb307e5" y="117.810029"/>
     <use style="fill:#1f77b4;stroke:#000000;stroke-width:0.25;" x="335.653999" xlink:href="#mceafb307e5" y="117.184129"/>
     <use style="fill:#1f77b4;stroke:#000000;stroke-width:0.25;" x="339.963622" xlink:href="#mceafb307e5" y="116.577021"/>
     <use style="fill:#1f77b4;stroke:#000000;stroke-width:0.25;" x="344.273244" xlink:href="#mceafb307e5" y="115.98927"/>
     <use style="fill:#1f77b4;stroke:#000000;stroke-width:0.25;" x="348.582866" xlink:href="#mceafb307e5" y="115.421223"/>
     <use style="fill:#1f77b4;stroke:#000000;stroke-width:0.25;" x="352.892488" xlink:href="#mceafb307e5" y="114.873148"/>
     <use style="fill:#1f77b4;stroke:#000000;stroke-width:0.25;" x="357.20211" xlink:href="#mceafb307e5" y="114.345409"/>
     <use style="fill:#1f77b4;stroke:#000000;stroke-width:0.25;" x="361.511733" xlink:href="#mceafb307e5" y="113.83867"/>
     <use style="fill:#1f77b4;stroke:#000000;stroke-width:0.25;" x="365.821355" xlink:href="#mceafb307e5" y="113.354069"/>
     <use style="fill:#1f77b4;stroke:#000000;stroke-width:0.25;" x="370.130977" xlink:href="#mceafb307e5" y="112.893361"/>
     <use style="fill:#1f77b4;stroke:#000000;stroke-width:0.25;" x="374.440599" xlink:href="#mceafb307e5" y="112.45899"/>
     <use style="fill:#1f77b4;stroke:#000000;stroke-width:0.25;" x="378.750221" xlink:href="#mceafb307e5" y="112.054084"/>
     <use style="fill:#1f77b4;stroke:#000000;stroke-width:0.25;" x="383.059844" xlink:href="#mceafb307e5" y="111.68236"/>
     <use style="fill:#1f77b4;stroke:#000000;stroke-width:0.25;" x="387.369466" xlink:href="#mceafb307e5" y="111.347942"/>
     <use style="fill:#1f77b4;stroke:#000000;stroke-width:0.25;" x="391.679088" xlink:href="#mceafb307e5" y="111.055104"/>
     <use style="fill:#1f77b4;stroke:#000000;stroke-width:0.25;" x="395.98871" xlink:href="#mceafb307e5" y="110.807948"/>
     <use style="fill:#1f77b4;stroke:#000000;stroke-width:0.25;" x="400.298332" xlink:href="#mceafb307e5" y="110.610059"/>
     <use style="fill:#1f77b4;stroke:#000000;stroke-width:0.25;" x="404.607955" xlink:href="#mceafb307e5" y="110.464153"/>
    </g>
   </g>
   <g id="PathCollection_4">
    <g clip-path="url(#pe10edff0e8)">
     <use style="fill:#00008b;stroke:#00008b;" x="227.913445" xlink:href="#m37f135f9f9" y="133.180821"/>
     <use style="fill:#00008b;stroke:#00008b;" x="232.223067" xlink:href="#m37f135f9f9" y="137.196537"/>
     <use style="fill:#00008b;stroke:#00008b;" x="236.532689" xlink:href="#m37f135f9f9" y="141.628849"/>
     <use style="fill:#00008b;stroke:#00008b;" x="240.842311" xlink:href="#m37f135f9f9" y="146.535847"/>
     <use style="fill:#00008b;stroke:#00008b;" x="245.151933" xlink:href="#m37f135f9f9" y="143.073745"/>
     <use style="fill:#00008b;stroke:#00008b;" x="249.461555" xlink:href="#m37f135f9f9" y="140.0549"/>
     <use style="fill:#00008b;stroke:#00008b;" x="253.771178" xlink:href="#m37f135f9f9" y="137.390167"/>
     <use style="fill:#00008b;stroke:#00008b;" x="258.0808" xlink:href="#m37f135f9f9" y="135.035534"/>
     <use style="fill:#00008b;stroke:#00008b;" x="262.390422" xlink:href="#m37f135f9f9" y="132.986925"/>
    </g>
   </g>
  </g>
 </g>
 <defs>
  <clipPath id="pe10edff0e8">
   <rect height="235.4" width="365.025" x="56.175" y="10.8"/>
  </clipPath>
 </defs>
</svg>
